<svg id="visual" viewBox="0 0 960 540" width="960" height="540" xmlns="http://www.w3.org/2000/svg" xmlns:xlink="http://www.w3.org/1999/xlink" version="1.1"><rect x="0" y="0" width="960" height="540" fill="#290460"></rect><path d="M0 273L8 271.5C16 270 32 267 48 272.3C64 277.7 80 291.3 96 302.8C112 314.3 128 323.7 144 323.2C160 322.7 176 312.3 192 304.7C208 297 224 292 240 288.5C256 285 272 283 288 285.7C304 288.3 320 295.7 336 296.3C352 297 368 291 384 289.7C400 288.3 416 291.7 432 296.3C448 301 464 307 480 304C496 301 512 289 528 285.5C544 282 560 287 576 289C592 291 608 290 624 294.3C640 298.7 656 308.3 672 310.7C688 313 704 308 720 307.3C736 306.7 752 310.3 768 307.5C784 304.7 800 295.3 816 293.7C832 292 848 298 864 301.7C880 305.3 896 306.7 912 299.7C928 292.7 944 277.3 952 269.7L960 262L960 541L952 541C944 541 928 541 912 541C896 541 880 541 864 541C848 541 832 541 816 541C800 541 784 541 768 541C752 541 736 541 720 541C704 541 688 541 672 541C656 541 640 541 624 541C608 541 592 541 576 541C560 541 544 541 528 541C512 541 496 541 480 541C464 541 448 541 432 541C416 541 400 541 384 541C368 541 352 541 336 541C320 541 304 541 288 541C272 541 256 541 240 541C224 541 208 541 192 541C176 541 160 541 144 541C128 541 112 541 96 541C80 541 64 541 48 541C32 541 16 541 8 541L0 541Z" fill="#8f6b69"></path><path d="M0 286L8 295C16 304 32 322 48 327.5C64 333 80 326 96 322.7C112 319.3 128 319.7 144 321C160 322.3 176 324.7 192 319.3C208 314 224 301 240 304C256 307 272 326 288 333.3C304 340.7 320 336.3 336 330.5C352 324.7 368 317.3 384 314.7C400 312 416 314 432 318.7C448 323.3 464 330.7 480 329.2C496 327.7 512 317.3 528 316.3C544 315.3 560 323.7 576 326.2C592 328.7 608 325.3 624 323.8C640 322.3 656 322.7 672 321.5C688 320.3 704 317.7 720 314C736 310.3 752 305.7 768 305.2C784 304.7 800 308.3 816 309.7C832 311 848 310 864 306.7C880 303.3 896 297.7 912 294.3C928 291 944 290 952 289.5L960 289L960 541L952 541C944 541 928 541 912 541C896 541 880 541 864 541C848 541 832 541 816 541C800 541 784 541 768 541C752 541 736 541 720 541C704 541 688 541 672 541C656 541 640 541 624 541C608 541 592 541 576 541C560 541 544 541 528 541C512 541 496 541 480 541C464 541 448 541 432 541C416 541 400 541 384 541C368 541 352 541 336 541C320 541 304 541 288 541C272 541 256 541 240 541C224 541 208 541 192 541C176 541 160 541 144 541C128 541 112 541 96 541C80 541 64 541 48 541C32 541 16 541 8 541L0 541Z" fill="#8f6163"></path><path d="M0 323L8 320.8C16 318.7 32 314.3 48 322.7C64 331 80 352 96 352C112 352 128 331 144 331C160 331 176 352 192 362.5C208 373 224 373 240 363.5C256 354 272 335 288 327.7C304 320.3 320 324.7 336 324.7C352 324.7 368 320.3 384 319.8C400 319.3 416 322.7 432 327.8C448 333 464 340 480 343.8C496 347.7 512 348.3 528 343.3C544 338.3 560 327.7 576 325.7C592 323.7 608 330.3 624 339C640 347.7 656 358.3 672 361.3C688 364.3 704 359.7 720 359.2C736 358.7 752 362.3 768 357.8C784 353.3 800 340.7 816 340.3C832 340 848 352 864 358.8C880 365.7 896 367.3 912 367C928 366.7 944 364.3 952 363.2L960 362L960 541L952 541C944 541 928 541 912 541C896 541 880 541 864 541C848 541 832 541 816 541C800 541 784 541 768 541C752 541 736 541 720 541C704 541 688 541 672 541C656 541 640 541 624 541C608 541 592 541 576 541C560 541 544 541 528 541C512 541 496 541 480 541C464 541 448 541 432 541C416 541 400 541 384 541C368 541 352 541 336 541C320 541 304 541 288 541C272 541 256 541 240 541C224 541 208 541 192 541C176 541 160 541 144 541C128 541 112 541 96 541C80 541 64 541 48 541C32 541 16 541 8 541L0 541Z" fill="#8d575e"></path><path d="M0 348L8 347C16 346 32 344 48 343.8C64 343.7 80 345.3 96 353C112 360.7 128 374.3 144 375.5C160 376.7 176 365.3 192 361.3C208 357.3 224 360.7 240 366.8C256 373 272 382 288 382.2C304 382.3 320 373.7 336 366.5C352 359.3 368 353.7 384 348.7C400 343.7 416 339.3 432 337.5C448 335.7 464 336.3 480 338.8C496 341.3 512 345.7 528 347.3C544 349 560 348 576 351.5C592 355 608 363 624 362.8C640 362.7 656 354.3 672 354.5C688 354.7 704 363.3 720 364.2C736 365 752 358 768 353.2C784 348.3 800 345.7 816 343.7C832 341.7 848 340.3 864 345.2C880 350 896 361 912 363.3C928 365.7 944 359.3 952 356.2L960 353L960 541L952 541C944 541 928 541 912 541C896 541 880 541 864 541C848 541 832 541 816 541C800 541 784 541 768 541C752 541 736 541 720 541C704 541 688 541 672 541C656 541 640 541 624 541C608 541 592 541 576 541C560 541 544 541 528 541C512 541 496 541 480 541C464 541 448 541 432 541C416 541 400 541 384 541C368 541 352 541 336 541C320 541 304 541 288 541C272 541 256 541 240 541C224 541 208 541 192 541C176 541 160 541 144 541C128 541 112 541 96 541C80 541 64 541 48 541C32 541 16 541 8 541L0 541Z" fill="#8c4d5b"></path><path d="M0 376L8 374.2C16 372.3 32 368.7 48 372.2C64 375.7 80 386.3 96 389.7C112 393 128 389 144 390.3C160 391.7 176 398.3 192 395C208 391.7 224 378.3 240 372.8C256 367.3 272 369.7 288 370.5C304 371.3 320 370.7 336 370.2C352 369.7 368 369.3 384 374.5C400 379.7 416 390.3 432 389.7C448 389 464 377 480 374.7C496 372.3 512 379.7 528 380.3C544 381 560 375 576 376.2C592 377.3 608 385.7 624 386.3C640 387 656 380 672 377.8C688 375.7 704 378.3 720 379.7C736 381 752 381 768 379.8C784 378.7 800 376.3 816 373.3C832 370.3 848 366.7 864 370.8C880 375 896 387 912 390.7C928 394.3 944 389.7 952 387.3L960 385L960 541L952 541C944 541 928 541 912 541C896 541 880 541 864 541C848 541 832 541 816 541C800 541 784 541 768 541C752 541 736 541 720 541C704 541 688 541 672 541C656 541 640 541 624 541C608 541 592 541 576 541C560 541 544 541 528 541C512 541 496 541 480 541C464 541 448 541 432 541C416 541 400 541 384 541C368 541 352 541 336 541C320 541 304 541 288 541C272 541 256 541 240 541C224 541 208 541 192 541C176 541 160 541 144 541C128 541 112 541 96 541C80 541 64 541 48 541C32 541 16 541 8 541L0 541Z" fill="#894359"></path><path d="M0 405L8 407.3C16 409.7 32 414.3 48 412.8C64 411.3 80 403.7 96 404.3C112 405 128 414 144 415C160 416 176 409 192 402.3C208 395.7 224 389.3 240 388C256 386.7 272 390.3 288 394.2C304 398 320 402 336 400.3C352 398.7 368 391.3 384 387.7C400 384 416 384 432 384.5C448 385 464 386 480 386.3C496 386.7 512 386.3 528 385.8C544 385.3 560 384.7 576 389.3C592 394 608 404 624 405.5C640 407 656 400 672 399.5C688 399 704 405 720 405.7C736 406.3 752 401.7 768 398.5C784 395.3 800 393.7 816 397C832 400.3 848 408.7 864 412.7C880 416.7 896 416.3 912 417.5C928 418.7 944 421.3 952 422.7L960 424L960 541L952 541C944 541 928 541 912 541C896 541 880 541 864 541C848 541 832 541 816 541C800 541 784 541 768 541C752 541 736 541 720 541C704 541 688 541 672 541C656 541 640 541 624 541C608 541 592 541 576 541C560 541 544 541 528 541C512 541 496 541 480 541C464 541 448 541 432 541C416 541 400 541 384 541C368 541 352 541 336 541C320 541 304 541 288 541C272 541 256 541 240 541C224 541 208 541 192 541C176 541 160 541 144 541C128 541 112 541 96 541C80 541 64 541 48 541C32 541 16 541 8 541L0 541Z" fill="#853959"></path><path d="M0 406L8 408.7C16 411.3 32 416.7 48 421.2C64 425.7 80 429.3 96 427.5C112 425.7 128 418.3 144 419.3C160 420.3 176 429.7 192 431.5C208 433.3 224 427.7 240 425.5C256 423.3 272 424.7 288 426.7C304 428.7 320 431.3 336 430.3C352 429.3 368 424.7 384 422.3C400 420 416 420 432 424.7C448 429.3 464 438.7 480 439.3C496 440 512 432 528 429.8C544 427.7 560 431.3 576 433.8C592 436.3 608 437.7 624 436.8C640 436 656 433 672 431.8C688 430.7 704 431.3 720 429.3C736 427.3 752 422.7 768 425C784 427.3 800 436.7 816 438.2C832 439.7 848 433.3 864 426.5C880 419.7 896 412.3 912 414.8C928 417.3 944 429.7 952 435.8L960 442L960 541L952 541C944 541 928 541 912 541C896 541 880 541 864 541C848 541 832 541 816 541C800 541 784 541 768 541C752 541 736 541 720 541C704 541 688 541 672 541C656 541 640 541 624 541C608 541 592 541 576 541C560 541 544 541 528 541C512 541 496 541 480 541C464 541 448 541 432 541C416 541 400 541 384 541C368 541 352 541 336 541C320 541 304 541 288 541C272 541 256 541 240 541C224 541 208 541 192 541C176 541 160 541 144 541C128 541 112 541 96 541C80 541 64 541 48 541C32 541 16 541 8 541L0 541Z" fill="#802f5a"></path><path d="M0 456L8 458C16 460 32 464 48 462.3C64 460.7 80 453.3 96 450.7C112 448 128 450 144 447C160 444 176 436 192 434.7C208 433.3 224 438.7 240 439.8C256 441 272 438 288 438.3C304 438.7 320 442.3 336 447.3C352 452.3 368 458.7 384 459.5C400 460.3 416 455.7 432 449.8C448 444 464 437 480 439C496 441 512 452 528 453C544 454 560 445 576 441.3C592 437.7 608 439.3 624 438C640 436.7 656 432.3 672 434.5C688 436.7 704 445.3 720 448.7C736 452 752 450 768 450C784 450 800 452 816 452.2C832 452.3 848 450.7 864 452C880 453.3 896 457.7 912 460C928 462.3 944 462.7 952 462.8L960 463L960 541L952 541C944 541 928 541 912 541C896 541 880 541 864 541C848 541 832 541 816 541C800 541 784 541 768 541C752 541 736 541 720 541C704 541 688 541 672 541C656 541 640 541 624 541C608 541 592 541 576 541C560 541 544 541 528 541C512 541 496 541 480 541C464 541 448 541 432 541C416 541 400 541 384 541C368 541 352 541 336 541C320 541 304 541 288 541C272 541 256 541 240 541C224 541 208 541 192 541C176 541 160 541 144 541C128 541 112 541 96 541C80 541 64 541 48 541C32 541 16 541 8 541L0 541Z" fill="#7a245c"></path><path d="M0 477L8 473C16 469 32 461 48 459.7C64 458.3 80 463.7 96 468.5C112 473.3 128 477.7 144 480.2C160 482.7 176 483.3 192 481.7C208 480 224 476 240 470.3C256 464.7 272 457.3 288 456.8C304 456.3 320 462.7 336 466.3C352 470 368 471 384 471.3C400 471.7 416 471.3 432 472.2C448 473 464 475 480 476.7C496 478.3 512 479.7 528 481.2C544 482.7 560 484.3 576 483.5C592 482.7 608 479.3 624 474.7C640 470 656 464 672 459.8C688 455.7 704 453.3 720 455.2C736 457 752 463 768 463.5C784 464 800 459 816 459.7C832 460.3 848 466.7 864 468.3C880 470 896 467 912 465.2C928 463.3 944 462.7 952 462.3L960 462L960 541L952 541C944 541 928 541 912 541C896 541 880 541 864 541C848 541 832 541 816 541C800 541 784 541 768 541C752 541 736 541 720 541C704 541 688 541 672 541C656 541 640 541 624 541C608 541 592 541 576 541C560 541 544 541 528 541C512 541 496 541 480 541C464 541 448 541 432 541C416 541 400 541 384 541C368 541 352 541 336 541C320 541 304 541 288 541C272 541 256 541 240 541C224 541 208 541 192 541C176 541 160 541 144 541C128 541 112 541 96 541C80 541 64 541 48 541C32 541 16 541 8 541L0 541Z" fill="#721a5f"></path><path d="M0 504L8 500.8C16 497.7 32 491.3 48 490C64 488.7 80 492.3 96 494.5C112 496.7 128 497.3 144 494.7C160 492 176 486 192 487.3C208 488.7 224 497.3 240 497.7C256 498 272 490 288 486.8C304 483.7 320 485.3 336 489C352 492.7 368 498.3 384 500.5C400 502.7 416 501.3 432 501.3C448 501.3 464 502.7 480 501.7C496 500.7 512 497.3 528 493.8C544 490.3 560 486.7 576 487.8C592 489 608 495 624 493.7C640 492.3 656 483.7 672 480.2C688 476.7 704 478.3 720 480C736 481.7 752 483.3 768 482.8C784 482.3 800 479.7 816 478.7C832 477.7 848 478.3 864 479.8C880 481.3 896 483.7 912 484.2C928 484.7 944 483.3 952 482.7L960 482L960 541L952 541C944 541 928 541 912 541C896 541 880 541 864 541C848 541 832 541 816 541C800 541 784 541 768 541C752 541 736 541 720 541C704 541 688 541 672 541C656 541 640 541 624 541C608 541 592 541 576 541C560 541 544 541 528 541C512 541 496 541 480 541C464 541 448 541 432 541C416 541 400 541 384 541C368 541 352 541 336 541C320 541 304 541 288 541C272 541 256 541 240 541C224 541 208 541 192 541C176 541 160 541 144 541C128 541 112 541 96 541C80 541 64 541 48 541C32 541 16 541 8 541L0 541Z" fill="#691063"></path><path d="M0 499L8 501C16 503 32 507 48 510.7C64 514.3 80 517.7 96 516.5C112 515.3 128 509.7 144 506.2C160 502.7 176 501.3 192 502.2C208 503 224 506 240 506.5C256 507 272 505 288 503.3C304 501.7 320 500.3 336 504C352 507.7 368 516.3 384 519.8C400 523.3 416 521.7 432 519.2C448 516.7 464 513.3 480 511C496 508.7 512 507.3 528 509.5C544 511.7 560 517.3 576 519.8C592 522.3 608 521.7 624 519.8C640 518 656 515 672 514.7C688 514.3 704 516.7 720 518.8C736 521 752 523 768 520.2C784 517.3 800 509.7 816 506.7C832 503.7 848 505.3 864 507.2C880 509 896 511 912 509.8C928 508.7 944 504.3 952 502.2L960 500L960 541L952 541C944 541 928 541 912 541C896 541 880 541 864 541C848 541 832 541 816 541C800 541 784 541 768 541C752 541 736 541 720 541C704 541 688 541 672 541C656 541 640 541 624 541C608 541 592 541 576 541C560 541 544 541 528 541C512 541 496 541 480 541C464 541 448 541 432 541C416 541 400 541 384 541C368 541 352 541 336 541C320 541 304 541 288 541C272 541 256 541 240 541C224 541 208 541 192 541C176 541 160 541 144 541C128 541 112 541 96 541C80 541 64 541 48 541C32 541 16 541 8 541L0 541Z" fill="#5d0767"></path></svg>