<svg id="visual" viewBox="0 0 960 540" width="960" height="540" xmlns="http://www.w3.org/2000/svg" xmlns:xlink="http://www.w3.org/1999/xlink" version="1.1"><rect x="0" y="0" width="960" height="540" fill="#3e0592"></rect><path d="M0 247L8.8 251.2C17.7 255.3 35.3 263.7 53.2 269.8C71 276 89 280 106.8 287.8C124.7 295.7 142.3 307.3 160 304C177.7 300.7 195.3 282.3 213.2 275.8C231 269.3 249 274.7 266.8 284C284.7 293.3 302.3 306.7 320 317.5C337.7 328.3 355.3 336.7 373.2 335.7C391 334.7 409 324.3 426.8 324.3C444.7 324.3 462.3 334.7 480 328.7C497.7 322.7 515.3 300.3 533.2 290C551 279.7 569 281.3 586.8 284C604.7 286.7 622.3 290.3 640 294.7C657.7 299 675.3 304 693.2 301.5C711 299 729 289 746.8 292.2C764.7 295.3 782.3 311.7 800 306.5C817.7 301.3 835.3 274.7 853.2 262.5C871 250.3 889 252.7 906.8 265.7C924.7 278.7 942.3 302.3 951.2 314.2L960 326L960 541L951.2 541C942.3 541 924.7 541 906.8 541C889 541 871 541 853.2 541C835.3 541 817.7 541 800 541C782.3 541 764.7 541 746.8 541C729 541 711 541 693.2 541C675.3 541 657.7 541 640 541C622.3 541 604.7 541 586.8 541C569 541 551 541 533.2 541C515.3 541 497.7 541 480 541C462.3 541 444.7 541 426.8 541C409 541 391 541 373.2 541C355.3 541 337.7 541 320 541C302.3 541 284.7 541 266.8 541C249 541 231 541 213.2 541C195.3 541 177.7 541 160 541C142.3 541 124.7 541 106.8 541C89 541 71 541 53.2 541C35.3 541 17.7 541 8.8 541L0 541Z" fill="#c4665f"></path><path d="M0 294L8.8 292.8C17.7 291.7 35.3 289.3 53.2 291.3C71 293.3 89 299.7 106.8 304.7C124.7 309.7 142.3 313.3 160 309.8C177.7 306.3 195.3 295.7 213.2 304.3C231 313 249 341 266.8 349.7C284.7 358.3 302.3 347.7 320 348.3C337.7 349 355.3 361 373.2 349.7C391 338.3 409 303.7 426.8 298.5C444.7 293.3 462.3 317.7 480 325C497.7 332.3 515.3 322.7 533.2 321.2C551 319.7 569 326.3 586.8 323.8C604.7 321.3 622.3 309.7 640 304C657.7 298.3 675.3 298.7 693.2 309.5C711 320.3 729 341.7 746.8 346.2C764.7 350.7 782.3 338.3 800 339.3C817.7 340.3 835.3 354.7 853.2 354.8C871 355 889 341 906.8 330C924.7 319 942.3 311 951.2 307L960 303L960 541L951.2 541C942.3 541 924.7 541 906.8 541C889 541 871 541 853.2 541C835.3 541 817.7 541 800 541C782.3 541 764.7 541 746.8 541C729 541 711 541 693.2 541C675.3 541 657.7 541 640 541C622.3 541 604.7 541 586.8 541C569 541 551 541 533.2 541C515.3 541 497.7 541 480 541C462.3 541 444.7 541 426.8 541C409 541 391 541 373.2 541C355.3 541 337.7 541 320 541C302.3 541 284.7 541 266.8 541C249 541 231 541 213.2 541C195.3 541 177.7 541 160 541C142.3 541 124.7 541 106.8 541C89 541 71 541 53.2 541C35.3 541 17.7 541 8.8 541L0 541Z" fill="#c15c5e"></path><path d="M0 339L8.8 345.7C17.7 352.3 35.3 365.7 53.2 366.8C71 368 89 357 106.8 347.3C124.7 337.7 142.3 329.3 160 325.3C177.7 321.3 195.3 321.7 213.2 317.3C231 313 249 304 266.8 307.8C284.7 311.7 302.3 328.3 320 339C337.7 349.7 355.3 354.3 373.2 350.7C391 347 409 335 426.8 326.2C444.7 317.3 462.3 311.7 480 317.2C497.7 322.7 515.3 339.3 533.2 340.5C551 341.7 569 327.3 586.8 317.2C604.7 307 622.3 301 640 308.3C657.7 315.7 675.3 336.3 693.2 342.5C711 348.7 729 340.3 746.8 339C764.7 337.7 782.3 343.3 800 342C817.7 340.7 835.3 332.3 853.2 332.3C871 332.3 889 340.7 906.8 345.8C924.7 351 942.3 353 951.2 354L960 355L960 541L951.2 541C942.3 541 924.7 541 906.8 541C889 541 871 541 853.2 541C835.3 541 817.7 541 800 541C782.3 541 764.7 541 746.8 541C729 541 711 541 693.2 541C675.3 541 657.7 541 640 541C622.3 541 604.7 541 586.8 541C569 541 551 541 533.2 541C515.3 541 497.7 541 480 541C462.3 541 444.7 541 426.8 541C409 541 391 541 373.2 541C355.3 541 337.7 541 320 541C302.3 541 284.7 541 266.8 541C249 541 231 541 213.2 541C195.3 541 177.7 541 160 541C142.3 541 124.7 541 106.8 541C89 541 71 541 53.2 541C35.3 541 17.7 541 8.8 541L0 541Z" fill="#bd525f"></path><path d="M0 346L8.8 351.5C17.7 357 35.3 368 53.2 364.3C71 360.7 89 342.3 106.8 343.8C124.7 345.3 142.3 366.7 160 377.7C177.7 388.7 195.3 389.3 213.2 377C231 364.7 249 339.3 266.8 330.8C284.7 322.3 302.3 330.7 320 340.7C337.7 350.7 355.3 362.3 373.2 368.8C391 375.3 409 376.7 426.8 375.2C444.7 373.7 462.3 369.3 480 360.8C497.7 352.3 515.3 339.7 533.2 333.8C551 328 569 329 586.8 336.8C604.7 344.7 622.3 359.3 640 362C657.7 364.7 675.3 355.3 693.2 352C711 348.7 729 351.3 746.8 357.3C764.7 363.3 782.3 372.7 800 374C817.7 375.3 835.3 368.7 853.2 372C871 375.3 889 388.7 906.8 383C924.7 377.3 942.3 352.7 951.2 340.3L960 328L960 541L951.2 541C942.3 541 924.7 541 906.8 541C889 541 871 541 853.2 541C835.3 541 817.7 541 800 541C782.3 541 764.7 541 746.8 541C729 541 711 541 693.2 541C675.3 541 657.7 541 640 541C622.3 541 604.7 541 586.8 541C569 541 551 541 533.2 541C515.3 541 497.7 541 480 541C462.3 541 444.7 541 426.8 541C409 541 391 541 373.2 541C355.3 541 337.7 541 320 541C302.3 541 284.7 541 266.8 541C249 541 231 541 213.2 541C195.3 541 177.7 541 160 541C142.3 541 124.7 541 106.8 541C89 541 71 541 53.2 541C35.3 541 17.7 541 8.8 541L0 541Z" fill="#b94860"></path><path d="M0 350L8.8 348.3C17.7 346.7 35.3 343.3 53.2 344.5C71 345.7 89 351.3 106.8 361.3C124.7 371.3 142.3 385.7 160 382.7C177.7 379.7 195.3 359.3 213.2 357.7C231 356 249 373 266.8 383C284.7 393 302.3 396 320 396C337.7 396 355.3 393 373.2 386C391 379 409 368 426.8 367.2C444.7 366.3 462.3 375.7 480 382.7C497.7 389.7 515.3 394.3 533.2 389.3C551 384.3 569 369.7 586.8 369.7C604.7 369.7 622.3 384.3 640 390.8C657.7 397.3 675.3 395.7 693.2 399C711 402.3 729 410.7 746.8 414.7C764.7 418.7 782.3 418.3 800 414.8C817.7 411.3 835.3 404.7 853.2 394.2C871 383.7 889 369.3 906.8 359.8C924.7 350.3 942.3 345.7 951.2 343.3L960 341L960 541L951.2 541C942.3 541 924.7 541 906.8 541C889 541 871 541 853.2 541C835.3 541 817.7 541 800 541C782.3 541 764.7 541 746.8 541C729 541 711 541 693.2 541C675.3 541 657.7 541 640 541C622.3 541 604.7 541 586.8 541C569 541 551 541 533.2 541C515.3 541 497.7 541 480 541C462.3 541 444.7 541 426.8 541C409 541 391 541 373.2 541C355.3 541 337.7 541 320 541C302.3 541 284.7 541 266.8 541C249 541 231 541 213.2 541C195.3 541 177.7 541 160 541C142.3 541 124.7 541 106.8 541C89 541 71 541 53.2 541C35.3 541 17.7 541 8.8 541L0 541Z" fill="#b43e62"></path><path d="M0 373L8.8 370.7C17.7 368.3 35.3 363.7 53.2 362C71 360.3 89 361.7 106.8 363.2C124.7 364.7 142.3 366.3 160 368.7C177.7 371 195.3 374 213.2 374.8C231 375.7 249 374.3 266.8 376.7C284.7 379 302.3 385 320 383.2C337.7 381.3 355.3 371.7 373.2 366.7C391 361.7 409 361.3 426.8 368.3C444.7 375.3 462.3 389.7 480 389.8C497.7 390 515.3 376 533.2 374.2C551 372.3 569 382.7 586.8 387.7C604.7 392.7 622.3 392.3 640 391.3C657.7 390.3 675.3 388.7 693.2 387.2C711 385.7 729 384.3 746.8 391.8C764.7 399.3 782.3 415.7 800 418C817.7 420.3 835.3 408.7 853.2 402.5C871 396.3 889 395.7 906.8 394C924.7 392.3 942.3 389.7 951.2 388.3L960 387L960 541L951.2 541C942.3 541 924.7 541 906.8 541C889 541 871 541 853.2 541C835.3 541 817.7 541 800 541C782.3 541 764.7 541 746.8 541C729 541 711 541 693.2 541C675.3 541 657.7 541 640 541C622.3 541 604.7 541 586.8 541C569 541 551 541 533.2 541C515.3 541 497.7 541 480 541C462.3 541 444.7 541 426.8 541C409 541 391 541 373.2 541C355.3 541 337.7 541 320 541C302.3 541 284.7 541 266.8 541C249 541 231 541 213.2 541C195.3 541 177.7 541 160 541C142.3 541 124.7 541 106.8 541C89 541 71 541 53.2 541C35.3 541 17.7 541 8.8 541L0 541Z" fill="#ad3465"></path><path d="M0 427L8.8 428.5C17.7 430 35.3 433 53.2 429.8C71 426.7 89 417.3 106.8 418C124.7 418.7 142.3 429.3 160 432.7C177.7 436 195.3 432 213.2 429.3C231 426.7 249 425.3 266.8 423.8C284.7 422.3 302.3 420.7 320 423.3C337.7 426 355.3 433 373.2 436.3C391 439.7 409 439.3 426.8 433.5C444.7 427.7 462.3 416.3 480 410.8C497.7 405.3 515.3 405.7 533.2 408.8C551 412 569 418 586.8 417.5C604.7 417 622.3 410 640 413.7C657.7 417.3 675.3 431.7 693.2 432.5C711 433.3 729 420.7 746.8 411.7C764.7 402.7 782.3 397.3 800 396C817.7 394.7 835.3 397.3 853.2 403.7C871 410 889 420 906.8 421.3C924.7 422.7 942.3 415.3 951.2 411.7L960 408L960 541L951.2 541C942.3 541 924.7 541 906.8 541C889 541 871 541 853.2 541C835.3 541 817.7 541 800 541C782.3 541 764.7 541 746.8 541C729 541 711 541 693.2 541C675.3 541 657.7 541 640 541C622.3 541 604.7 541 586.8 541C569 541 551 541 533.2 541C515.3 541 497.7 541 480 541C462.3 541 444.7 541 426.8 541C409 541 391 541 373.2 541C355.3 541 337.7 541 320 541C302.3 541 284.7 541 266.8 541C249 541 231 541 213.2 541C195.3 541 177.7 541 160 541C142.3 541 124.7 541 106.8 541C89 541 71 541 53.2 541C35.3 541 17.7 541 8.8 541L0 541Z" fill="#a62a68"></path><path d="M0 446L8.8 442C17.7 438 35.3 430 53.2 426C71 422 89 422 106.8 426.5C124.7 431 142.3 440 160 439.3C177.7 438.7 195.3 428.3 213.2 425.7C231 423 249 428 266.8 432.8C284.7 437.7 302.3 442.3 320 446.2C337.7 450 355.3 453 373.2 446.8C391 440.7 409 425.3 426.8 418.8C444.7 412.3 462.3 414.7 480 418.3C497.7 422 515.3 427 533.2 430.8C551 434.7 569 437.3 586.8 441.5C604.7 445.7 622.3 451.3 640 447.8C657.7 444.3 675.3 431.7 693.2 425.8C711 420 729 421 746.8 425.8C764.7 430.7 782.3 439.3 800 443C817.7 446.7 835.3 445.3 853.2 446.2C871 447 889 450 906.8 445.2C924.7 440.3 942.3 427.7 951.2 421.3L960 415L960 541L951.2 541C942.3 541 924.7 541 906.8 541C889 541 871 541 853.2 541C835.3 541 817.7 541 800 541C782.3 541 764.7 541 746.8 541C729 541 711 541 693.2 541C675.3 541 657.7 541 640 541C622.3 541 604.7 541 586.8 541C569 541 551 541 533.2 541C515.3 541 497.7 541 480 541C462.3 541 444.7 541 426.8 541C409 541 391 541 373.2 541C355.3 541 337.7 541 320 541C302.3 541 284.7 541 266.8 541C249 541 231 541 213.2 541C195.3 541 177.7 541 160 541C142.3 541 124.7 541 106.8 541C89 541 71 541 53.2 541C35.3 541 17.7 541 8.8 541L0 541Z" fill="#9e216b"></path><path d="M0 471L8.8 468.3C17.7 465.7 35.3 460.3 53.2 455C71 449.7 89 444.3 106.8 447.2C124.7 450 142.3 461 160 463.5C177.7 466 195.3 460 213.2 454.8C231 449.7 249 445.3 266.8 442.7C284.7 440 302.3 439 320 440.7C337.7 442.3 355.3 446.7 373.2 448.8C391 451 409 451 426.8 451.3C444.7 451.7 462.3 452.3 480 453.8C497.7 455.3 515.3 457.7 533.2 455.7C551 453.7 569 447.3 586.8 446.7C604.7 446 622.3 451 640 450.5C657.7 450 675.3 444 693.2 443.3C711 442.7 729 447.3 746.8 448.5C764.7 449.7 782.3 447.3 800 443.3C817.7 439.3 835.3 433.7 853.2 437.7C871 441.7 889 455.3 906.8 458C924.7 460.7 942.3 452.3 951.2 448.2L960 444L960 541L951.2 541C942.3 541 924.7 541 906.8 541C889 541 871 541 853.2 541C835.3 541 817.7 541 800 541C782.3 541 764.7 541 746.8 541C729 541 711 541 693.2 541C675.3 541 657.7 541 640 541C622.3 541 604.7 541 586.8 541C569 541 551 541 533.2 541C515.3 541 497.7 541 480 541C462.3 541 444.7 541 426.8 541C409 541 391 541 373.2 541C355.3 541 337.7 541 320 541C302.3 541 284.7 541 266.8 541C249 541 231 541 213.2 541C195.3 541 177.7 541 160 541C142.3 541 124.7 541 106.8 541C89 541 71 541 53.2 541C35.3 541 17.7 541 8.8 541L0 541Z" fill="#95186f"></path><path d="M0 470L8.8 470.7C17.7 471.3 35.3 472.7 53.2 473C71 473.3 89 472.7 106.8 471.3C124.7 470 142.3 468 160 465.8C177.7 463.7 195.3 461.3 213.2 459C231 456.7 249 454.3 266.8 457.8C284.7 461.3 302.3 470.7 320 475.3C337.7 480 355.3 480 373.2 480.7C391 481.3 409 482.7 426.8 483.2C444.7 483.7 462.3 483.3 480 482.3C497.7 481.3 515.3 479.7 533.2 478.2C551 476.7 569 475.3 586.8 476.5C604.7 477.7 622.3 481.3 640 479.5C657.7 477.7 675.3 470.3 693.2 469.3C711 468.3 729 473.7 746.8 473C764.7 472.3 782.3 465.7 800 464.3C817.7 463 835.3 467 853.2 468.2C871 469.3 889 467.7 906.8 469.7C924.7 471.7 942.3 477.3 951.2 480.2L960 483L960 541L951.2 541C942.3 541 924.7 541 906.8 541C889 541 871 541 853.2 541C835.3 541 817.7 541 800 541C782.3 541 764.7 541 746.8 541C729 541 711 541 693.2 541C675.3 541 657.7 541 640 541C622.3 541 604.7 541 586.8 541C569 541 551 541 533.2 541C515.3 541 497.7 541 480 541C462.3 541 444.7 541 426.8 541C409 541 391 541 373.2 541C355.3 541 337.7 541 320 541C302.3 541 284.7 541 266.8 541C249 541 231 541 213.2 541C195.3 541 177.7 541 160 541C142.3 541 124.7 541 106.8 541C89 541 71 541 53.2 541C35.3 541 17.7 541 8.8 541L0 541Z" fill="#8a1173"></path><path d="M0 487L8.8 488.2C17.7 489.3 35.3 491.7 53.2 492.5C71 493.3 89 492.7 106.8 492.8C124.7 493 142.3 494 160 495.2C177.7 496.3 195.3 497.7 213.2 495.8C231 494 249 489 266.8 486.8C284.7 484.7 302.3 485.3 320 485.7C337.7 486 355.3 486 373.2 485.5C391 485 409 484 426.8 482.8C444.7 481.7 462.3 480.3 480 481.8C497.7 483.3 515.3 487.7 533.2 489.8C551 492 569 492 586.8 491.8C604.7 491.7 622.3 491.3 640 489.3C657.7 487.3 675.3 483.7 693.2 481.8C711 480 729 480 746.8 482.3C764.7 484.7 782.3 489.3 800 490.8C817.7 492.3 835.3 490.7 853.2 487.8C871 485 889 481 906.8 481.7C924.7 482.3 942.3 487.7 951.2 490.3L960 493L960 541L951.2 541C942.3 541 924.7 541 906.8 541C889 541 871 541 853.2 541C835.3 541 817.7 541 800 541C782.3 541 764.7 541 746.8 541C729 541 711 541 693.2 541C675.3 541 657.7 541 640 541C622.3 541 604.7 541 586.8 541C569 541 551 541 533.2 541C515.3 541 497.7 541 480 541C462.3 541 444.7 541 426.8 541C409 541 391 541 373.2 541C355.3 541 337.7 541 320 541C302.3 541 284.7 541 266.8 541C249 541 231 541 213.2 541C195.3 541 177.7 541 160 541C142.3 541 124.7 541 106.8 541C89 541 71 541 53.2 541C35.3 541 17.7 541 8.8 541L0 541Z" fill="#7e0c77"></path><path d="M0 497L8.8 498C17.7 499 35.3 501 53.2 503.3C71 505.7 89 508.3 106.8 508.8C124.7 509.3 142.3 507.7 160 506.2C177.7 504.7 195.3 503.3 213.2 503C231 502.7 249 503.3 266.8 505C284.7 506.7 302.3 509.3 320 510.8C337.7 512.3 355.3 512.7 373.2 510.2C391 507.7 409 502.3 426.8 501.5C444.7 500.7 462.3 504.3 480 506.8C497.7 509.3 515.3 510.7 533.2 509.7C551 508.7 569 505.3 586.8 503C604.7 500.7 622.3 499.3 640 501.2C657.7 503 675.3 508 693.2 510.5C711 513 729 513 746.8 512.8C764.7 512.7 782.3 512.3 800 511.2C817.7 510 835.3 508 853.2 506.5C871 505 889 504 906.8 505.2C924.7 506.3 942.3 509.7 951.2 511.3L960 513L960 541L951.2 541C942.3 541 924.7 541 906.8 541C889 541 871 541 853.2 541C835.3 541 817.7 541 800 541C782.3 541 764.7 541 746.8 541C729 541 711 541 693.2 541C675.3 541 657.7 541 640 541C622.3 541 604.7 541 586.8 541C569 541 551 541 533.2 541C515.3 541 497.7 541 480 541C462.3 541 444.7 541 426.8 541C409 541 391 541 373.2 541C355.3 541 337.7 541 320 541C302.3 541 284.7 541 266.8 541C249 541 231 541 213.2 541C195.3 541 177.7 541 160 541C142.3 541 124.7 541 106.8 541C89 541 71 541 53.2 541C35.3 541 17.7 541 8.8 541L0 541Z" fill="#700b7b"></path></svg>