<svg id="visual" viewBox="0 0 960 540" width="960" height="540" xmlns="http://www.w3.org/2000/svg" xmlns:xlink="http://www.w3.org/1999/xlink" version="1.1"><rect x="0" y="0" width="960" height="540" fill="#290460"></rect><path d="M0 82L7 82.7C14 83.3 28 84.7 41.8 86.7C55.7 88.7 69.3 91.3 83.2 102.7C97 114 111 134 125 144C139 154 153 154 167 144C181 134 195 114 208.8 108.3C222.7 102.7 236.3 111.3 250.2 113.5C264 115.7 278 111.3 292 109C306 106.7 320 106.3 334 112.2C348 118 362 130 375.8 132.8C389.7 135.7 403.3 129.3 417.2 122.7C431 116 445 109 459 107.8C473 106.7 487 111.3 501 119.5C515 127.7 529 139.3 542.8 137.3C556.7 135.3 570.3 119.7 584.2 109C598 98.3 612 92.7 626 100C640 107.3 654 127.7 668 139C682 150.3 696 152.7 709.8 141.2C723.7 129.7 737.3 104.3 751.2 99C765 93.7 779 108.3 793 111.7C807 115 821 107 835 100C849 93 863 87 876.8 91.7C890.7 96.3 904.3 111.7 918.2 120.5C932 129.3 946 131.7 953 132.8L960 134L960 541L953 541C946 541 932 541 918.2 541C904.3 541 890.7 541 876.8 541C863 541 849 541 835 541C821 541 807 541 793 541C779 541 765 541 751.2 541C737.3 541 723.7 541 709.8 541C696 541 682 541 668 541C654 541 640 541 626 541C612 541 598 541 584.2 541C570.3 541 556.7 541 542.8 541C529 541 515 541 501 541C487 541 473 541 459 541C445 541 431 541 417.2 541C403.3 541 389.7 541 375.8 541C362 541 348 541 334 541C320 541 306 541 292 541C278 541 264 541 250.2 541C236.3 541 222.7 541 208.8 541C195 541 181 541 167 541C153 541 139 541 125 541C111 541 97 541 83.2 541C69.3 541 55.7 541 41.8 541C28 541 14 541 7 541L0 541Z" fill="#8f6b69"></path><path d="M0 182L7 174.5C14 167 28 152 41.8 146.7C55.7 141.3 69.3 145.7 83.2 145C97 144.3 111 138.7 125 137.7C139 136.7 153 140.3 167 146.8C181 153.3 195 162.7 208.8 169.3C222.7 176 236.3 180 250.2 183.7C264 187.3 278 190.7 292 184.2C306 177.7 320 161.3 334 149.8C348 138.3 362 131.7 375.8 132.7C389.7 133.7 403.3 142.3 417.2 147.5C431 152.7 445 154.3 459 160C473 165.7 487 175.3 501 170.8C515 166.3 529 147.7 542.8 144.5C556.7 141.3 570.3 153.7 584.2 162.7C598 171.7 612 177.3 626 179.5C640 181.7 654 180.3 668 174.2C682 168 696 157 709.8 148C723.7 139 737.3 132 751.2 138.2C765 144.3 779 163.7 793 169.2C807 174.7 821 166.3 835 156.5C849 146.7 863 135.3 876.8 134.8C890.7 134.3 904.3 144.7 918.2 145.3C932 146 946 137 953 132.5L960 128L960 541L953 541C946 541 932 541 918.2 541C904.3 541 890.7 541 876.8 541C863 541 849 541 835 541C821 541 807 541 793 541C779 541 765 541 751.2 541C737.3 541 723.7 541 709.8 541C696 541 682 541 668 541C654 541 640 541 626 541C612 541 598 541 584.2 541C570.3 541 556.7 541 542.8 541C529 541 515 541 501 541C487 541 473 541 459 541C445 541 431 541 417.2 541C403.3 541 389.7 541 375.8 541C362 541 348 541 334 541C320 541 306 541 292 541C278 541 264 541 250.2 541C236.3 541 222.7 541 208.8 541C195 541 181 541 167 541C153 541 139 541 125 541C111 541 97 541 83.2 541C69.3 541 55.7 541 41.8 541C28 541 14 541 7 541L0 541Z" fill="#8c5d60"></path><path d="M0 183L7 191.7C14 200.3 28 217.7 41.8 219.5C55.7 221.3 69.3 207.7 83.2 199.8C97 192 111 190 125 190.7C139 191.3 153 194.7 167 199.7C181 204.7 195 211.3 208.8 209C222.7 206.7 236.3 195.3 250.2 194.5C264 193.7 278 203.3 292 211.8C306 220.3 320 227.7 334 220.7C348 213.7 362 192.3 375.8 181.3C389.7 170.3 403.3 169.7 417.2 177.3C431 185 445 201 459 210.2C473 219.3 487 221.7 501 221.5C515 221.3 529 218.7 542.8 212.5C556.7 206.3 570.3 196.7 584.2 190.8C598 185 612 183 626 183.3C640 183.7 654 186.3 668 187.2C682 188 696 187 709.8 188.5C723.7 190 737.3 194 751.2 200.7C765 207.3 779 216.7 793 218.5C807 220.3 821 214.7 835 209.2C849 203.7 863 198.3 876.8 195.7C890.7 193 904.3 193 918.2 196.8C932 200.7 946 208.3 953 212.2L960 216L960 541L953 541C946 541 932 541 918.2 541C904.3 541 890.7 541 876.8 541C863 541 849 541 835 541C821 541 807 541 793 541C779 541 765 541 751.2 541C737.3 541 723.7 541 709.8 541C696 541 682 541 668 541C654 541 640 541 626 541C612 541 598 541 584.2 541C570.3 541 556.7 541 542.8 541C529 541 515 541 501 541C487 541 473 541 459 541C445 541 431 541 417.2 541C403.3 541 389.7 541 375.8 541C362 541 348 541 334 541C320 541 306 541 292 541C278 541 264 541 250.2 541C236.3 541 222.7 541 208.8 541C195 541 181 541 167 541C153 541 139 541 125 541C111 541 97 541 83.2 541C69.3 541 55.7 541 41.8 541C28 541 14 541 7 541L0 541Z" fill="#884e5a"></path><path d="M0 226L7 227.7C14 229.3 28 232.7 41.8 238.2C55.7 243.7 69.3 251.3 83.2 257.5C97 263.7 111 268.3 125 262.5C139 256.7 153 240.3 167 238.5C181 236.7 195 249.3 208.8 256.8C222.7 264.3 236.3 266.7 250.2 261.2C264 255.7 278 242.3 292 238.7C306 235 320 241 334 245.7C348 250.3 362 253.7 375.8 249.2C389.7 244.7 403.3 232.3 417.2 225.7C431 219 445 218 459 224.2C473 230.3 487 243.7 501 251.2C515 258.7 529 260.3 542.8 257.2C556.7 254 570.3 246 584.2 248C598 250 612 262 626 265C640 268 654 262 668 256.5C682 251 696 246 709.8 245.3C723.7 244.7 737.3 248.3 751.2 243.8C765 239.3 779 226.7 793 220.7C807 214.7 821 215.3 835 225.7C849 236 863 256 876.8 260.5C890.7 265 904.3 254 918.2 253C932 252 946 261 953 265.5L960 270L960 541L953 541C946 541 932 541 918.2 541C904.3 541 890.7 541 876.8 541C863 541 849 541 835 541C821 541 807 541 793 541C779 541 765 541 751.2 541C737.3 541 723.7 541 709.8 541C696 541 682 541 668 541C654 541 640 541 626 541C612 541 598 541 584.2 541C570.3 541 556.7 541 542.8 541C529 541 515 541 501 541C487 541 473 541 459 541C445 541 431 541 417.2 541C403.3 541 389.7 541 375.8 541C362 541 348 541 334 541C320 541 306 541 292 541C278 541 264 541 250.2 541C236.3 541 222.7 541 208.8 541C195 541 181 541 167 541C153 541 139 541 125 541C111 541 97 541 83.2 541C69.3 541 55.7 541 41.8 541C28 541 14 541 7 541L0 541Z" fill="#834057"></path><path d="M0 312L7 306.3C14 300.7 28 289.3 41.8 286.2C55.7 283 69.3 288 83.2 284C97 280 111 267 125 261.7C139 256.3 153 258.7 167 259C181 259.3 195 257.7 208.8 258.5C222.7 259.3 236.3 262.7 250.2 272.2C264 281.7 278 297.3 292 301.8C306 306.3 320 299.7 334 290.5C348 281.3 362 269.7 375.8 265.2C389.7 260.7 403.3 263.3 417.2 271.3C431 279.3 445 292.7 459 294.3C473 296 487 286 501 279.2C515 272.3 529 268.7 542.8 275.5C556.7 282.3 570.3 299.7 584.2 302.8C598 306 612 295 626 294.5C640 294 654 304 668 302.2C682 300.3 696 286.7 709.8 276.7C723.7 266.7 737.3 260.3 751.2 266.3C765 272.3 779 290.7 793 296.8C807 303 821 297 835 287.7C849 278.3 863 265.7 876.8 269.3C890.7 273 904.3 293 918.2 297.8C932 302.7 946 292.3 953 287.2L960 282L960 541L953 541C946 541 932 541 918.2 541C904.3 541 890.7 541 876.8 541C863 541 849 541 835 541C821 541 807 541 793 541C779 541 765 541 751.2 541C737.3 541 723.7 541 709.8 541C696 541 682 541 668 541C654 541 640 541 626 541C612 541 598 541 584.2 541C570.3 541 556.7 541 542.8 541C529 541 515 541 501 541C487 541 473 541 459 541C445 541 431 541 417.2 541C403.3 541 389.7 541 375.8 541C362 541 348 541 334 541C320 541 306 541 292 541C278 541 264 541 250.2 541C236.3 541 222.7 541 208.8 541C195 541 181 541 167 541C153 541 139 541 125 541C111 541 97 541 83.2 541C69.3 541 55.7 541 41.8 541C28 541 14 541 7 541L0 541Z" fill="#7c3156"></path><path d="M0 338L7 337.7C14 337.3 28 336.7 41.8 337.8C55.7 339 69.3 342 83.2 340C97 338 111 331 125 323.5C139 316 153 308 167 306.3C181 304.7 195 309.3 208.8 309C222.7 308.7 236.3 303.3 250.2 304C264 304.7 278 311.3 292 320.7C306 330 320 342 334 341.7C348 341.3 362 328.7 375.8 320C389.7 311.3 403.3 306.7 417.2 306C431 305.3 445 308.7 459 317.8C473 327 487 342 501 344.8C515 347.7 529 338.3 542.8 337.7C556.7 337 570.3 345 584.2 345.2C598 345.3 612 337.7 626 337.7C640 337.7 654 345.3 668 344.8C682 344.3 696 335.7 709.8 331.5C723.7 327.3 737.3 327.7 751.2 324.7C765 321.7 779 315.3 793 311.5C807 307.7 821 306.3 835 309.8C849 313.3 863 321.7 876.8 325C890.7 328.3 904.3 326.7 918.2 328.8C932 331 946 337 953 340L960 343L960 541L953 541C946 541 932 541 918.2 541C904.3 541 890.7 541 876.8 541C863 541 849 541 835 541C821 541 807 541 793 541C779 541 765 541 751.2 541C737.3 541 723.7 541 709.8 541C696 541 682 541 668 541C654 541 640 541 626 541C612 541 598 541 584.2 541C570.3 541 556.7 541 542.8 541C529 541 515 541 501 541C487 541 473 541 459 541C445 541 431 541 417.2 541C403.3 541 389.7 541 375.8 541C362 541 348 541 334 541C320 541 306 541 292 541C278 541 264 541 250.2 541C236.3 541 222.7 541 208.8 541C195 541 181 541 167 541C153 541 139 541 125 541C111 541 97 541 83.2 541C69.3 541 55.7 541 41.8 541C28 541 14 541 7 541L0 541Z" fill="#722357"></path><path d="M0 384L7 382.2C14 380.3 28 376.7 41.8 376.3C55.7 376 69.3 379 83.2 376.7C97 374.3 111 366.7 125 363.7C139 360.7 153 362.3 167 367.2C181 372 195 380 208.8 383.8C222.7 387.7 236.3 387.3 250.2 381.3C264 375.3 278 363.7 292 355.7C306 347.7 320 343.3 334 344.5C348 345.7 362 352.3 375.8 356C389.7 359.7 403.3 360.3 417.2 364.8C431 369.3 445 377.7 459 378.7C473 379.7 487 373.3 501 373.3C515 373.3 529 379.7 542.8 378.2C556.7 376.7 570.3 367.3 584.2 368C598 368.7 612 379.3 626 381C640 382.7 654 375.3 668 372.7C682 370 696 372 709.8 372.2C723.7 372.3 737.3 370.7 751.2 368.2C765 365.7 779 362.3 793 360.3C807 358.3 821 357.7 835 355.2C849 352.7 863 348.3 876.8 346.8C890.7 345.3 904.3 346.7 918.2 351.5C932 356.3 946 364.7 953 368.8L960 373L960 541L953 541C946 541 932 541 918.2 541C904.3 541 890.7 541 876.8 541C863 541 849 541 835 541C821 541 807 541 793 541C779 541 765 541 751.2 541C737.3 541 723.7 541 709.8 541C696 541 682 541 668 541C654 541 640 541 626 541C612 541 598 541 584.2 541C570.3 541 556.7 541 542.8 541C529 541 515 541 501 541C487 541 473 541 459 541C445 541 431 541 417.2 541C403.3 541 389.7 541 375.8 541C362 541 348 541 334 541C320 541 306 541 292 541C278 541 264 541 250.2 541C236.3 541 222.7 541 208.8 541C195 541 181 541 167 541C153 541 139 541 125 541C111 541 97 541 83.2 541C69.3 541 55.7 541 41.8 541C28 541 14 541 7 541L0 541Z" fill="#65155a"></path><path d="M0 437L7 434C14 431 28 425 41.8 425C55.7 425 69.3 431 83.2 428.2C97 425.3 111 413.7 125 407.2C139 400.7 153 399.3 167 401.3C181 403.3 195 408.7 208.8 413.7C222.7 418.7 236.3 423.3 250.2 421.5C264 419.7 278 411.3 292 411.7C306 412 320 421 334 419.3C348 417.7 362 405.3 375.8 403.3C389.7 401.3 403.3 409.7 417.2 415.5C431 421.3 445 424.7 459 419.8C473 415 487 402 501 396.5C515 391 529 393 542.8 399.8C556.7 406.7 570.3 418.3 584.2 420.8C598 423.3 612 416.7 626 413.2C640 409.7 654 409.3 668 409C682 408.7 696 408.3 709.8 413C723.7 417.7 737.3 427.3 751.2 428.3C765 429.3 779 421.7 793 420.2C807 418.7 821 423.3 835 426.2C849 429 863 430 876.8 431.7C890.7 433.3 904.3 435.7 918.2 428C932 420.3 946 402.7 953 393.8L960 385L960 541L953 541C946 541 932 541 918.2 541C904.3 541 890.7 541 876.8 541C863 541 849 541 835 541C821 541 807 541 793 541C779 541 765 541 751.2 541C737.3 541 723.7 541 709.8 541C696 541 682 541 668 541C654 541 640 541 626 541C612 541 598 541 584.2 541C570.3 541 556.7 541 542.8 541C529 541 515 541 501 541C487 541 473 541 459 541C445 541 431 541 417.2 541C403.3 541 389.7 541 375.8 541C362 541 348 541 334 541C320 541 306 541 292 541C278 541 264 541 250.2 541C236.3 541 222.7 541 208.8 541C195 541 181 541 167 541C153 541 139 541 125 541C111 541 97 541 83.2 541C69.3 541 55.7 541 41.8 541C28 541 14 541 7 541L0 541Z" fill="#550a5e"></path><path d="M0 467L7 463.2C14 459.3 28 451.7 41.8 453.2C55.7 454.7 69.3 465.3 83.2 469.7C97 474 111 472 125 472.2C139 472.3 153 474.7 167 470.7C181 466.7 195 456.3 208.8 455C222.7 453.7 236.3 461.3 250.2 462.2C264 463 278 457 292 452C306 447 320 443 334 446.2C348 449.3 362 459.7 375.8 463.3C389.7 467 403.3 464 417.2 457.5C431 451 445 441 459 439.3C473 437.7 487 444.3 501 449.8C515 455.3 529 459.7 542.8 463C556.7 466.3 570.3 468.7 584.2 466.5C598 464.3 612 457.7 626 451.8C640 446 654 441 668 444.8C682 448.7 696 461.3 709.8 459.8C723.7 458.3 737.3 442.7 751.2 438.7C765 434.7 779 442.3 793 445.3C807 448.3 821 446.7 835 445.2C849 443.7 863 442.3 876.8 448.2C890.7 454 904.3 467 918.2 464.5C932 462 946 444 953 435L960 426L960 541L953 541C946 541 932 541 918.2 541C904.3 541 890.7 541 876.8 541C863 541 849 541 835 541C821 541 807 541 793 541C779 541 765 541 751.2 541C737.3 541 723.7 541 709.8 541C696 541 682 541 668 541C654 541 640 541 626 541C612 541 598 541 584.2 541C570.3 541 556.7 541 542.8 541C529 541 515 541 501 541C487 541 473 541 459 541C445 541 431 541 417.2 541C403.3 541 389.7 541 375.8 541C362 541 348 541 334 541C320 541 306 541 292 541C278 541 264 541 250.2 541C236.3 541 222.7 541 208.8 541C195 541 181 541 167 541C153 541 139 541 125 541C111 541 97 541 83.2 541C69.3 541 55.7 541 41.8 541C28 541 14 541 7 541L0 541Z" fill="#3e0562"></path><path d="M0 492L7 492C14 492 28 492 41.8 493.2C55.7 494.3 69.3 496.7 83.2 493.3C97 490 111 481 125 481C139 481 153 490 167 494C181 498 195 497 208.8 495.2C222.7 493.3 236.3 490.7 250.2 489C264 487.3 278 486.7 292 489.7C306 492.7 320 499.3 334 503.2C348 507 362 508 375.8 507.2C389.7 506.3 403.3 503.7 417.2 503.2C431 502.7 445 504.3 459 507.5C473 510.7 487 515.3 501 515.5C515 515.7 529 511.3 542.8 506.8C556.7 502.3 570.3 497.7 584.2 494.3C598 491 612 489 626 486.7C640 484.3 654 481.7 668 483.2C682 484.7 696 490.3 709.8 490.8C723.7 491.3 737.3 486.7 751.2 482.5C765 478.3 779 474.7 793 481C807 487.3 821 503.7 835 505.2C849 506.7 863 493.3 876.8 493.3C890.7 493.3 904.3 506.7 918.2 507.3C932 508 946 496 953 490L960 484L960 541L953 541C946 541 932 541 918.2 541C904.3 541 890.7 541 876.8 541C863 541 849 541 835 541C821 541 807 541 793 541C779 541 765 541 751.2 541C737.3 541 723.7 541 709.8 541C696 541 682 541 668 541C654 541 640 541 626 541C612 541 598 541 584.2 541C570.3 541 556.7 541 542.8 541C529 541 515 541 501 541C487 541 473 541 459 541C445 541 431 541 417.2 541C403.3 541 389.7 541 375.8 541C362 541 348 541 334 541C320 541 306 541 292 541C278 541 264 541 250.2 541C236.3 541 222.7 541 208.8 541C195 541 181 541 167 541C153 541 139 541 125 541C111 541 97 541 83.2 541C69.3 541 55.7 541 41.8 541C28 541 14 541 7 541L0 541Z" fill="#180767"></path></svg>